<?xml version="1.0" standalone="no"?>
<!DOCTYPE svg PUBLIC "-//W3C//DTD SVG 20010904//EN"
 "http://www.w3.org/TR/2001/REC-SVG-20010904/DTD/svg10.dtd">
<svg version="1.0" xmlns="http://www.w3.org/2000/svg"
 width="1668.000000pt" height="1668.000000pt" viewBox="0 0 1668.000000 1668.000000"
 preserveAspectRatio="xMidYMid meet">
<metadata>
Created by potrace 1.14, written by Peter Selinger 2001-2017
</metadata>
<g transform="translate(0.000000,1668.000000) scale(0.100000,-0.100000)"
fill="#000000" stroke="none">
<path d="M0 8340 l0 -8340 1455 0 1455 0 4 2103 c2 1435 7 2131 15 2192 16
132 39 293 50 350 41 217 80 377 94 391 4 4 7 15 7 25 0 19 28 116 40 140 5 9
12 33 15 53 4 20 11 36 16 36 5 0 9 11 9 24 0 14 4 27 9 31 5 3 13 20 16 37 7
28 35 98 92 227 33 75 48 106 56 109 4 2 7 9 7 15 0 13 111 238 121 247 4 3 9
15 13 28 4 12 12 22 17 22 5 0 9 7 9 15 0 8 4 15 9 15 5 0 12 11 15 25 4 14
11 25 16 25 6 0 10 5 10 11 0 6 18 38 40 71 22 33 40 62 40 65 0 2 5 9 10 16
11 13 129 180 145 205 6 9 20 28 33 42 12 14 41 50 65 80 23 30 51 64 62 76
11 11 31 35 45 53 86 113 401 428 522 522 24 18 57 48 75 66 17 18 35 33 39
33 3 0 23 15 43 33 52 45 92 76 124 95 15 9 27 20 27 24 0 4 5 8 10 8 6 0 16
4 23 10 7 5 28 22 47 38 19 15 67 48 105 72 39 25 72 47 75 51 3 3 21 14 40
25 19 10 41 25 48 32 7 6 20 12 28 12 8 0 14 5 14 10 0 6 6 10 14 10 8 0 16 4
18 9 3 8 76 50 173 100 28 14 52 29 55 32 8 10 336 169 348 169 7 0 12 5 12
10 0 6 7 10 16 10 9 0 28 6 42 14 15 7 38 18 52 24 78 34 119 50 150 62 19 7
49 18 65 25 17 7 66 25 110 40 44 15 89 30 100 35 11 4 39 13 63 19 23 7 40
16 37 20 -3 5 -56 25 -117 45 -110 36 -165 57 -200 76 -10 6 -26 10 -35 10
-10 0 -27 7 -37 15 -11 8 -30 15 -43 15 -13 0 -23 4 -23 9 0 5 -11 12 -25 15
-26 7 -97 37 -191 82 -28 13 -56 24 -62 24 -7 0 -12 4 -12 8 0 4 -23 16 -50
27 -28 11 -50 23 -50 27 0 4 -5 8 -11 8 -12 0 -131 58 -139 68 -3 4 -34 22
-70 40 -93 47 -154 84 -158 93 -2 5 -8 9 -13 9 -11 0 -138 77 -156 96 -8 8
-20 14 -28 14 -7 0 -15 4 -17 8 -1 5 -28 25 -58 44 -30 19 -66 45 -80 56 -14
12 -30 26 -37 32 -7 5 -17 10 -23 10 -5 0 -10 4 -10 9 0 5 -8 12 -18 15 -9 3
-28 16 -42 29 -14 12 -46 38 -72 57 -27 18 -48 37 -48 42 0 4 -5 8 -11 8 -7 0
-19 8 -28 18 -9 9 -43 40 -76 67 -164 137 -415 388 -545 546 -19 23 -39 47
-45 53 -5 6 -37 45 -70 86 -33 41 -62 77 -65 80 -3 3 -21 28 -39 55 -19 28
-38 52 -41 55 -3 3 -21 30 -40 60 -19 30 -37 57 -40 60 -3 3 -10 14 -17 25 -7
11 -42 66 -78 123 -36 57 -65 107 -65 112 0 5 -6 15 -13 22 -6 7 -28 45 -47
83 -19 39 -38 71 -42 73 -5 2 -8 8 -8 12 0 8 -26 67 -104 235 -50 108 -74 168
-118 300 -11 33 -24 68 -29 77 -5 10 -9 26 -9 36 0 10 -3 22 -7 26 -5 4 -13
29 -20 54 -6 26 -19 74 -28 107 -9 33 -18 71 -21 85 -3 14 -9 34 -14 45 -4 11
-13 52 -20 90 -6 39 -16 93 -21 120 -11 57 -35 227 -51 360 -7 59 -12 819 -14
2188 l-4 2097 -1455 0 -1455 0 0 -8340z"/>
<path d="M13766 14568 c-2 -1412 -7 -2140 -14 -2193 -6 -44 -16 -118 -21 -165
-6 -47 -13 -96 -16 -110 -4 -14 -10 -47 -15 -75 -20 -126 -32 -181 -41 -197
-5 -10 -9 -25 -9 -33 0 -9 -7 -40 -16 -68 -8 -29 -20 -70 -26 -92 -17 -65 -40
-139 -48 -155 -4 -9 -11 -31 -15 -50 -4 -19 -11 -41 -15 -50 -19 -35 -40 -89
-40 -99 0 -6 -4 -19 -9 -29 -5 -9 -24 -53 -41 -96 -18 -44 -36 -87 -40 -95 -4
-9 -46 -92 -91 -186 -46 -93 -87 -172 -90 -175 -3 -3 -9 -15 -13 -27 -4 -13
-12 -23 -17 -23 -5 0 -9 -7 -9 -15 0 -8 -4 -15 -10 -15 -5 0 -10 -6 -10 -13 0
-6 -25 -50 -55 -96 -30 -46 -55 -88 -55 -92 0 -4 -3 -9 -8 -11 -4 -2 -23 -28
-42 -58 -19 -30 -37 -57 -40 -60 -3 -3 -25 -32 -49 -65 -24 -33 -49 -64 -55
-70 -6 -5 -31 -37 -56 -70 -24 -33 -58 -75 -74 -93 -17 -18 -37 -42 -46 -53
-76 -101 -379 -403 -520 -519 -30 -24 -64 -52 -75 -62 -96 -82 -184 -151 -206
-162 -11 -5 -19 -13 -19 -18 0 -4 -5 -8 -11 -8 -6 0 -17 -6 -24 -13 -8 -6 -20
-17 -27 -22 -24 -19 -159 -110 -179 -120 -10 -5 -19 -13 -19 -17 0 -5 -7 -8
-15 -8 -8 0 -15 -4 -15 -9 0 -5 -10 -13 -22 -17 -13 -4 -25 -10 -28 -13 -8 -9
-79 -54 -140 -88 -30 -17 -80 -45 -110 -61 -30 -17 -89 -48 -130 -69 -41 -21
-77 -40 -80 -43 -3 -3 -23 -14 -45 -24 -22 -10 -62 -28 -88 -42 -27 -13 -55
-24 -63 -24 -8 0 -14 -4 -14 -10 0 -5 -5 -10 -11 -10 -5 0 -35 -11 -65 -25
-30 -14 -57 -25 -60 -25 -3 0 -22 -7 -42 -16 -21 -9 -52 -22 -70 -30 -18 -8
-39 -14 -47 -14 -8 0 -15 -4 -15 -10 0 -5 -8 -10 -17 -10 -10 0 -31 -7 -47
-15 -15 -8 -37 -15 -47 -15 -11 0 -19 -4 -19 -9 0 -5 -18 -11 -40 -15 -23 -3
-49 -11 -58 -16 -9 -5 -36 -14 -59 -20 -24 -6 -43 -15 -43 -20 0 -5 19 -14 43
-20 53 -14 127 -39 149 -51 10 -5 25 -9 33 -9 8 0 23 -4 33 -10 17 -9 45 -21
132 -55 114 -45 176 -71 315 -135 131 -60 140 -64 145 -70 3 -3 39 -22 80 -43
41 -21 107 -56 145 -78 39 -22 78 -43 88 -46 9 -3 17 -9 17 -14 0 -5 6 -9 14
-9 8 0 21 -6 28 -13 7 -6 30 -21 51 -32 20 -11 37 -23 37 -26 0 -4 10 -9 23
-13 12 -3 31 -13 42 -23 11 -10 53 -39 92 -65 71 -45 121 -81 148 -106 8 -6
18 -12 24 -12 6 0 11 -3 11 -7 0 -5 17 -19 38 -33 20 -14 39 -27 42 -30 3 -3
25 -21 50 -40 61 -47 80 -62 99 -80 9 -9 41 -36 71 -60 147 -121 437 -412 530
-531 14 -18 34 -42 45 -54 11 -11 47 -54 80 -95 33 -41 62 -77 65 -80 3 -3 21
-29 40 -57 19 -29 38 -53 43 -53 4 0 7 -4 7 -10 0 -8 56 -96 70 -110 7 -7 29
-43 37 -60 4 -8 9 -17 13 -20 12 -11 70 -107 70 -118 0 -7 5 -12 10 -12 6 0
10 -7 10 -15 0 -8 5 -15 10 -15 6 0 10 -6 10 -14 0 -8 6 -21 13 -28 6 -7 39
-67 72 -133 33 -66 63 -121 68 -123 4 -2 7 -10 7 -17 0 -18 32 -89 43 -93 4
-2 7 -8 7 -14 0 -5 7 -26 16 -46 39 -88 44 -101 44 -111 0 -6 4 -19 9 -29 22
-41 60 -144 67 -176 3 -20 10 -39 15 -42 5 -3 9 -16 9 -29 0 -13 4 -26 9 -29
5 -4 12 -25 16 -49 4 -23 11 -46 15 -52 4 -5 10 -23 12 -40 6 -33 27 -121 36
-145 7 -19 30 -134 37 -185 3 -22 10 -56 16 -75 5 -19 14 -75 20 -125 5 -49
15 -126 21 -170 7 -53 12 -780 14 -2192 l4 -2113 1455 0 1455 0 0 8340 0 8340
-1455 0 -1455 0 -4 -2112z"/>
<path d="M3600 14673 c0 -1281 4 -2026 10 -2077 6 -45 14 -133 20 -196 13
-165 30 -271 75 -465 9 -38 19 -82 22 -98 3 -15 9 -30 14 -33 5 -3 9 -15 9
-27 1 -12 14 -60 30 -107 17 -47 30 -93 30 -102 0 -10 4 -18 8 -18 4 0 17 -29
27 -65 11 -36 23 -65 28 -65 4 0 7 -7 7 -16 0 -15 8 -34 76 -182 19 -41 34
-77 34 -82 0 -5 3 -10 8 -12 4 -1 23 -34 42 -73 19 -38 37 -72 40 -75 3 -3 20
-34 39 -70 31 -59 92 -154 182 -285 19 -27 36 -52 39 -55 3 -3 25 -32 49 -65
25 -33 48 -62 51 -65 4 -3 11 -12 16 -21 39 -68 315 -359 503 -529 138 -126
143 -130 150 -130 3 0 17 -10 31 -22 14 -13 43 -36 65 -53 44 -32 48 -36 84
-65 13 -11 27 -20 31 -20 3 0 15 -8 26 -18 20 -19 243 -168 281 -189 58 -31
89 -49 101 -61 7 -6 19 -12 27 -12 7 0 15 -3 17 -8 2 -4 28 -20 58 -36 173
-90 265 -136 276 -136 7 0 14 -3 16 -8 4 -10 146 -72 164 -72 8 0 14 -4 14
-10 0 -5 7 -10 16 -10 9 0 32 -7 52 -16 38 -17 48 -20 122 -49 25 -9 52 -21
61 -25 9 -5 33 -12 53 -15 20 -4 39 -11 42 -16 3 -5 14 -9 25 -9 10 0 27 -4
37 -9 17 -10 62 -23 182 -56 36 -9 75 -21 87 -26 12 -4 45 -11 73 -15 28 -4
53 -11 56 -15 3 -5 18 -9 34 -9 16 0 31 -4 34 -9 3 -4 31 -11 63 -15 32 -4 72
-11 88 -16 17 -5 80 -16 140 -25 61 -9 133 -20 160 -25 317 -58 1063 -60 1395
-4 19 3 60 10 90 14 113 15 215 32 230 38 15 6 120 27 190 39 19 3 40 9 45 13
6 4 33 11 60 15 28 4 55 10 60 15 6 4 24 10 40 13 75 15 135 32 135 38 0 4 23
10 50 14 27 4 50 11 50 16 0 5 11 9 24 9 14 0 27 4 30 9 3 5 23 12 43 16 21 4
43 10 48 14 6 4 28 13 50 20 22 7 54 19 70 26 17 7 66 27 110 45 101 40 127
51 251 111 56 27 106 49 112 49 6 0 12 3 14 8 2 4 39 26 83 48 120 62 147 77
167 95 10 8 37 25 60 38 54 27 78 43 96 59 7 6 20 12 28 12 8 0 14 4 14 8 0 5
16 17 35 28 19 10 35 22 35 26 0 5 5 8 10 8 15 0 271 189 300 221 3 3 15 12
28 21 72 49 331 294 462 438 112 122 132 145 164 190 17 22 33 40 38 40 4 0 8
5 8 11 0 6 6 16 13 24 6 7 23 28 37 46 14 18 30 38 36 44 6 6 15 21 18 33 4
12 11 22 15 22 4 0 16 16 27 35 10 19 22 35 26 35 5 0 8 4 8 10 0 11 62 103
73 108 4 2 7 8 7 13 0 5 18 38 40 74 22 36 40 68 40 70 0 3 11 23 25 45 14 22
25 46 25 54 0 8 4 16 9 18 9 3 71 133 71 149 0 5 5 9 10 9 6 0 10 5 10 10 0 6
11 33 25 62 14 28 25 56 25 61 0 5 6 23 14 40 7 18 21 52 31 77 9 25 21 54 25
65 5 11 16 45 25 75 10 30 21 63 26 72 5 9 12 35 15 58 4 22 11 43 15 46 5 3
9 18 9 33 0 15 4 31 9 36 5 6 14 35 19 65 6 30 18 93 27 140 30 154 36 194 46
320 5 69 14 150 19 181 6 35 10 793 10 2067 0 1680 -2 2012 -13 2012 -8 0 -29
-15 -48 -32 -19 -18 -61 -55 -94 -83 -54 -46 -143 -123 -155 -135 -6 -6 -126
-109 -164 -141 -16 -13 -41 -35 -56 -49 -14 -14 -39 -36 -55 -49 -27 -20 -103
-87 -185 -162 -16 -14 -50 -44 -76 -65 -26 -21 -57 -48 -68 -59 -12 -11 -37
-33 -56 -48 -41 -33 -137 -117 -189 -166 -20 -18 -52 -45 -71 -59 -19 -15 -48
-40 -65 -57 -16 -17 -43 -41 -60 -53 -27 -21 -104 -88 -191 -167 -18 -16 -47
-41 -65 -55 -18 -14 -46 -38 -64 -55 -17 -16 -50 -46 -74 -65 -41 -34 -53 -44
-137 -120 -37 -33 -137 -120 -194 -168 -14 -11 -38 -33 -55 -47 -16 -14 -52
-45 -79 -68 -27 -23 -61 -53 -75 -67 -15 -14 -51 -45 -81 -70 -30 -25 -62 -52
-71 -60 -47 -44 -155 -137 -171 -149 -11 -7 -32 -25 -47 -40 -23 -22 -72 -65
-165 -144 -11 -10 -38 -34 -58 -53 l-36 -34 -4 -815 c-2 -634 -6 -817 -15
-827 -7 -6 -13 -25 -13 -40 0 -16 -9 -61 -21 -101 -12 -39 -26 -91 -32 -114
-6 -24 -14 -43 -19 -43 -4 0 -8 -7 -8 -15 0 -18 -32 -89 -42 -93 -5 -2 -8 -10
-8 -18 0 -13 -102 -185 -125 -211 -5 -6 -32 -39 -60 -74 -74 -92 -176 -191
-265 -259 -19 -14 -38 -30 -44 -35 -19 -18 -163 -105 -174 -105 -6 0 -12 -4
-14 -8 -3 -8 -102 -57 -188 -95 -19 -8 -51 -22 -72 -31 -20 -9 -42 -16 -50
-16 -8 0 -18 -3 -22 -7 -10 -10 -129 -41 -266 -69 -192 -39 -548 -44 -715 -10
-16 4 -66 14 -110 22 -44 9 -87 20 -96 24 -9 5 -37 11 -63 15 -25 4 -46 11
-46 15 0 4 -12 10 -27 13 -44 9 -103 31 -103 39 0 5 -6 8 -13 8 -26 0 -238
106 -245 123 -2 4 -7 7 -12 7 -8 0 -130 79 -140 90 -3 3 -18 16 -35 28 -43 33
-156 134 -174 156 -9 10 -31 35 -49 54 -18 19 -45 51 -60 71 -15 20 -29 38
-32 41 -15 14 -110 174 -139 235 -18 39 -37 78 -42 87 -5 10 -9 23 -9 29 0 6
-6 25 -14 42 -21 50 -46 141 -46 170 0 14 -4 28 -9 31 -17 11 -21 178 -21 915
-1 732 -3 782 -30 801 -10 7 -117 99 -165 141 -22 20 -53 47 -69 60 -15 13
-38 33 -50 44 -13 11 -46 40 -76 65 -29 25 -64 56 -79 70 -15 14 -40 36 -56
49 -40 30 -135 114 -198 174 -28 26 -53 47 -56 47 -3 0 -22 15 -41 33 -19 18
-66 59 -105 92 -38 33 -82 71 -96 85 -15 14 -37 34 -50 45 -13 11 -55 47 -94
79 -38 33 -79 69 -91 80 -11 12 -36 33 -55 49 -37 30 -125 107 -168 147 -15
14 -47 41 -71 60 -25 19 -61 51 -81 70 -20 19 -51 46 -68 60 -18 14 -47 39
-65 55 -29 28 -96 86 -200 175 -47 40 -99 86 -132 115 -12 11 -46 40 -75 65
-29 25 -68 59 -85 75 -18 17 -46 41 -64 55 -17 14 -46 39 -64 55 -80 72 -163
145 -191 166 -16 13 -43 36 -58 51 -15 15 -49 45 -74 65 -26 21 -59 49 -73 63
-59 56 -98 88 -118 99 l-22 12 0 -1998z"/>
<path d="M8035 8030 c-179 -10 -443 -41 -625 -75 -47 -9 -114 -21 -150 -26
-36 -6 -74 -14 -85 -19 -11 -5 -31 -11 -45 -14 -55 -11 -158 -38 -275 -71 -33
-9 -78 -22 -100 -27 -22 -6 -44 -15 -50 -19 -5 -5 -19 -9 -31 -9 -13 0 -25 -4
-28 -9 -3 -5 -22 -12 -42 -16 -20 -3 -44 -10 -53 -15 -9 -4 -36 -16 -61 -25
-74 -29 -84 -32 -122 -49 -20 -9 -43 -16 -52 -16 -9 0 -16 -3 -16 -8 0 -4 -29
-18 -65 -30 -36 -13 -67 -28 -71 -33 -3 -5 -14 -9 -24 -9 -10 0 -20 -3 -22 -7
-1 -5 -19 -15 -38 -24 -75 -35 -302 -151 -310 -159 -3 -3 -19 -12 -35 -21 -82
-44 -100 -54 -105 -60 -3 -3 -10 -8 -15 -10 -18 -7 -250 -163 -269 -181 -11
-10 -23 -18 -26 -18 -4 0 -18 -9 -31 -20 -36 -30 -41 -33 -84 -65 -215 -158
-565 -499 -725 -705 -19 -25 -37 -47 -40 -50 -3 -3 -25 -32 -50 -65 -25 -33
-47 -62 -50 -65 -7 -7 -140 -205 -167 -249 -24 -39 -72 -122 -107 -186 -12
-22 -27 -49 -34 -60 -6 -11 -37 -74 -67 -140 -31 -66 -60 -128 -65 -137 -6
-10 -10 -23 -10 -29 0 -6 -7 -26 -15 -45 -8 -19 -22 -49 -30 -68 -8 -19 -15
-41 -15 -50 0 -9 -4 -16 -10 -16 -5 0 -10 -9 -10 -20 0 -19 -23 -88 -40 -120
-4 -9 -11 -36 -15 -60 -4 -25 -11 -49 -15 -55 -4 -5 -10 -23 -14 -40 -67 -290
-82 -377 -96 -550 -6 -66 -15 -156 -20 -201 -6 -50 -10 -827 -10 -2077 l0
-1998 21 12 c12 6 36 24 53 40 17 15 49 45 71 65 22 20 56 48 75 63 19 14 51
42 71 61 20 19 76 69 124 110 49 41 103 89 121 105 18 17 47 41 65 55 18 14
52 43 75 65 23 22 55 51 70 64 54 46 159 136 164 141 3 3 23 21 46 40 85 72
169 146 201 175 18 17 47 41 65 55 18 14 48 41 68 60 19 19 49 45 65 58 27 22
106 90 191 167 18 17 48 41 65 55 18 14 45 36 59 50 14 14 41 38 60 54 29 24
147 127 184 161 13 11 126 109 170 146 15 13 42 36 60 52 17 15 51 44 75 65
24 20 60 53 80 73 21 19 47 42 59 51 23 16 110 91 167 143 17 17 54 48 80 70
27 22 58 49 69 60 12 11 48 43 81 70 80 67 124 106 146 129 17 18 18 61 19
780 0 744 4 911 21 922 5 3 9 17 9 31 0 28 26 126 41 155 5 10 9 23 9 29 0 12
19 58 57 139 25 53 131 230 143 240 3 3 13 15 21 27 24 35 111 133 148 167 19
17 46 42 60 56 15 14 47 41 71 60 25 19 54 43 64 52 11 10 23 18 27 18 4 0 14
6 21 13 20 18 50 37 71 43 9 4 17 10 17 15 0 5 6 9 14 9 8 0 21 6 28 13 18 17
184 97 203 97 8 0 15 4 15 9 0 5 10 11 23 14 26 6 85 26 107 37 9 4 31 11 50
14 19 4 44 11 55 16 11 4 56 15 100 24 44 8 94 18 110 21 128 26 560 30 638 6
18 -5 61 -15 97 -21 36 -6 81 -16 100 -20 118 -30 139 -36 146 -43 4 -4 14 -7
22 -7 8 0 30 -7 50 -16 21 -9 51 -22 67 -29 17 -7 56 -25 87 -39 31 -14 62
-26 67 -26 6 0 11 -4 11 -10 0 -5 7 -10 15 -10 8 0 15 -4 15 -10 0 -5 5 -10
12 -10 13 0 111 -61 116 -72 2 -5 9 -8 16 -8 7 0 24 -9 37 -21 13 -11 40 -33
59 -47 35 -28 125 -108 170 -152 35 -35 109 -125 155 -190 22 -30 43 -56 47
-58 5 -2 8 -8 8 -14 0 -6 14 -33 30 -60 17 -26 30 -55 30 -62 0 -8 3 -16 8
-18 10 -4 42 -75 42 -93 0 -8 4 -15 8 -15 5 0 14 -19 20 -42 6 -24 20 -81 32
-128 12 -47 27 -100 32 -119 7 -21 10 -324 9 -836 l-2 -802 43 -41 c24 -23 53
-49 64 -59 63 -53 142 -122 173 -151 58 -53 72 -65 146 -127 39 -32 72 -61 75
-64 3 -4 30 -26 60 -51 30 -25 66 -56 81 -70 33 -31 131 -117 172 -150 17 -14
49 -42 71 -63 21 -21 45 -41 51 -45 15 -9 109 -88 144 -122 14 -14 55 -50 90
-80 36 -30 76 -66 91 -80 14 -14 41 -36 59 -50 17 -14 47 -38 65 -55 55 -50
149 -132 186 -162 19 -15 51 -44 71 -63 20 -19 51 -46 68 -60 18 -14 47 -38
65 -55 17 -16 58 -52 90 -80 84 -72 150 -129 156 -135 6 -6 126 -109 164 -141
16 -13 41 -35 55 -49 15 -14 51 -45 81 -70 30 -25 66 -56 81 -70 14 -14 39
-36 55 -49 36 -30 148 -127 189 -163 35 -31 51 -45 131 -113 32 -27 74 -65 93
-82 19 -18 40 -33 48 -33 11 0 13 331 13 2005 0 1291 -4 2029 -10 2072 -6 38
-14 120 -20 183 -13 160 -37 317 -61 395 -5 17 -12 52 -15 78 -4 26 -11 50
-15 53 -5 3 -9 18 -9 35 0 16 -4 29 -9 29 -5 0 -12 21 -16 46 -4 26 -10 54
-15 63 -4 9 -15 41 -25 71 -9 30 -20 64 -25 75 -4 11 -16 40 -25 65 -10 25
-24 59 -31 77 -8 17 -14 35 -14 40 0 5 -11 33 -25 61 -14 29 -25 56 -25 62 0
5 -4 10 -10 10 -5 0 -10 6 -10 13 0 30 -214 422 -250 457 -10 10 -31 45 -36
63 -4 9 -10 17 -14 17 -5 0 -11 8 -14 18 -4 10 -14 27 -24 38 -10 10 -27 35
-39 54 -12 19 -34 48 -48 64 -14 16 -25 32 -25 35 0 4 -20 28 -45 55 -25 27
-45 52 -45 56 0 4 -15 23 -32 42 -18 19 -67 72 -108 118 -68 74 -139 146 -279
280 -50 48 -127 114 -176 151 -16 13 -32 26 -35 29 -3 3 -25 21 -50 40 -25 19
-47 37 -50 40 -15 16 -191 140 -200 140 -5 0 -10 3 -10 8 0 4 -27 23 -60 42
-33 19 -60 38 -60 43 0 4 -5 7 -10 7 -6 0 -50 25 -99 55 -49 30 -94 55 -100
55 -6 0 -11 4 -11 8 0 5 -19 17 -42 28 -24 10 -45 21 -48 24 -3 3 -23 14 -45
25 -22 11 -41 23 -43 28 -2 4 -8 7 -14 7 -5 0 -61 25 -123 55 -63 30 -121 55
-129 55 -8 0 -16 3 -18 8 -1 4 -41 22 -88 40 -47 19 -98 40 -115 47 -16 7 -48
19 -70 26 -22 7 -44 16 -50 20 -5 4 -27 10 -48 14 -20 4 -40 11 -43 16 -3 5
-16 9 -30 9 -13 0 -24 4 -24 9 0 5 -22 12 -50 16 -27 4 -50 11 -50 16 0 5 -11
9 -25 9 -14 0 -42 7 -62 15 -19 8 -45 15 -57 15 -12 0 -26 4 -31 9 -6 5 -35
14 -65 19 -30 6 -75 16 -100 22 -90 22 -331 68 -420 80 -318 41 -414 49 -660
53 -146 3 -332 1 -415 -3z"/>
</g>
</svg>
